<svg width="20" height="25" viewBox="0 0 20 25" fill="none" xmlns="http://www.w3.org/2000/svg">
<g clip-path="url(#clip0_4040_85)">
<path d="M16.451 13.2447C16.4188 11.288 17.2641 9.76543 18.9839 8.67539C18.014 7.26466 16.5831 6.47173 14.6915 6.29473C14.0183 6.23149 13.158 6.39053 12.1118 6.77595C10.9858 7.19318 10.3519 7.40086 10.2116 7.40086C9.91447 7.40086 9.34382 7.22536 8.49813 6.87212C7.65431 6.51963 6.93435 6.343 6.3405 6.343C5.33989 6.35909 4.40888 6.63563 3.54897 7.1726C2.68906 7.70995 2.00129 8.44376 1.48564 9.37252C0.827798 10.5273 0.5 11.9062 0.5 13.5089C0.5 14.9515 0.741733 16.394 1.22632 17.8376C1.67948 19.2166 2.25911 20.4267 2.96186 21.4674C3.58677 22.4137 4.13609 23.1026 4.60384 23.5363C5.27702 24.2095 5.96405 24.5302 6.66867 24.4976C7.12183 24.4812 7.71568 24.3132 8.45061 23.9917C9.13838 23.6886 9.82691 23.5363 10.5151 23.5363C11.1561 23.5363 11.8199 23.6875 12.5088 23.9917C13.2744 24.3132 13.9004 24.4729 14.385 24.4729C15.1046 24.4411 15.7763 24.1287 16.4027 23.5363C16.6205 23.3432 16.8596 23.0791 17.1174 22.7426C17.3756 22.4055 17.6608 22.0047 17.974 21.5403C18.1921 21.2039 18.4073 20.8432 18.6191 20.4582C18.8305 20.0735 19.0217 19.6652 19.1939 19.2315C19.2713 19.0553 19.3417 18.8753 19.4045 18.6908C19.4666 18.5067 19.5295 18.3189 19.592 18.1262C19.0135 17.8706 18.4892 17.508 18.0207 17.0432C16.9898 16.0187 16.4659 14.752 16.4502 13.2451L16.451 13.2447Z" fill="white"/>
<path d="M13.4948 4.34789C14.324 3.30574 14.7386 2.18352 14.7386 0.980846V0.740984C14.7386 0.660157 14.7308 0.580453 14.7154 0.5C14.1366 0.532181 13.5229 0.716661 12.8736 1.05269C12.2248 1.38985 11.6897 1.81531 11.2665 2.32759C10.4226 3.3383 9.99979 4.41973 9.99979 5.57414V5.80202C9.99979 5.87499 10.0076 5.95058 10.023 6.03141C11.3215 6.15938 12.4785 5.59809 13.4948 4.34826V4.34789Z" fill="white"/>
</g>
<defs>
<clipPath id="clip0_4040_85">
<rect width="19.0931" height="24" fill="white" transform="translate(0.5 0.5)"/>
</clipPath>
</defs>
</svg>
