<svg width="150" height="150" viewBox="0 0 150 150" fill="none" xmlns="http://www.w3.org/2000/svg">
<path d="M43.155 44.7259C50.4203 37.0909 62.2002 37.0909 69.4655 44.7259L75.1657 50.7161L79.5505 46.1087C86.8158 38.4735 98.5957 38.4736 105.861 46.1087C113.126 53.7439 113.126 66.1228 105.861 73.7581L75.1657 106.017L73.8503 104.634L43.155 72.3763C35.8897 64.741 35.8897 52.3611 43.155 44.7259ZM86.9128 60.3772C85.5126 59.0449 83.2971 59.0993 81.9646 60.4993L72.4988 70.4456L68.5349 66.2796L65.9997 68.6927L63.4646 71.1048L69.9646 77.9358C70.6251 78.6299 71.5415 79.0236 72.4997 79.0237C73.4579 79.0237 74.3743 78.6298 75.0349 77.9358L87.0349 65.3255C88.3672 63.9253 88.3127 61.7098 86.9128 60.3772ZM68.5349 66.2796C67.2024 64.8795 64.9869 64.8241 63.5866 66.1565C62.1867 67.4891 62.1322 69.7046 63.4646 71.1048L68.5349 66.2796Z" fill="#4D5FEF"/>
<path d="M33 54C29.9796 54 26.9888 54.5949 24.1983 55.7508C21.4078 56.9066 18.8723 58.6008 16.7365 60.7365C14.6008 62.8723 12.9066 65.4078 11.7508 68.1983C10.5949 70.9888 10 73.9796 10 77C10 80.0204 10.5949 83.0112 11.7508 85.8017C12.9066 88.5922 14.6008 91.1277 16.7365 93.2635C18.8723 95.3992 21.4078 97.0934 24.1983 98.2492C26.9888 99.4051 29.9796 100 33 100L33 77L33 54Z" fill="#CFD6E9"/>
<path d="M117 100C120.02 100 123.011 99.4051 125.802 98.2492C128.592 97.0934 131.128 95.3992 133.263 93.2635C135.399 91.1277 137.093 88.5922 138.249 85.8017C139.405 83.0112 140 80.0204 140 77C140 73.9796 139.405 70.9888 138.249 68.1983C137.093 65.4078 135.399 62.8723 133.263 60.7365C131.128 58.6008 128.592 56.9066 125.802 55.7508C123.011 54.5949 120.02 54 117 54L117 77L117 100Z" fill="#CFD6E9"/>
<ellipse cx="78.5" cy="123.5" rx="11.5" ry="11.5" transform="rotate(90 78.5 123.5)" fill="#CFD6E9"/>
<path d="M82.5878 123.474C92.923 122.034 102.635 117.684 110.591 110.932C118.547 104.179 124.417 95.3027 127.517 85.3387C130.617 75.3748 130.818 64.7346 128.098 54.6604C125.377 44.5863 119.847 35.494 112.152 28.4452C104.458 21.3963 94.9172 16.6818 84.6439 14.8521C74.3705 13.0224 63.7886 14.153 54.1337 18.1119C44.4788 22.0708 36.1494 28.6947 30.118 37.21C24.0865 45.7254 20.602 55.7809 20.0712 66.2024L25.5641 66.4821C26.0418 57.1028 29.1779 48.0528 34.6062 40.389C40.0345 32.7252 47.531 26.7637 56.2203 23.2007C64.9097 19.6377 74.4334 18.6201 83.6795 20.2669C92.9255 21.9136 101.512 26.1567 108.437 32.5006C115.362 38.8446 120.339 47.0277 122.788 56.0944C125.237 65.1611 125.055 74.7373 122.265 83.7048C119.475 92.6724 114.192 100.661 107.032 106.739C99.8719 112.816 91.1307 116.731 81.829 118.027L82.5878 123.474Z" fill="#CFD6E9"/>
<path d="M107.283 29.6224C109.869 26.2277 109.233 21.331 105.538 19.1946C96.2894 13.8456 85.7542 10.9964 74.9796 11C64.2051 11.0036 53.6718 13.8599 44.4263 19.215C40.7336 21.3539 40.1009 26.251 42.6891 29.6439C45.2774 33.0369 50.1051 33.6213 53.8863 31.6431C60.3641 28.2541 67.5985 26.4562 74.9848 26.4537C82.3711 26.4513 89.6067 28.2444 96.0867 31.629C99.8693 33.6047 104.697 33.017 107.283 29.6224Z" fill="#30374F"/>
</svg>
