<svg width="150" height="150" viewBox="0 0 150 150" fill="none" xmlns="http://www.w3.org/2000/svg">
<path d="M75 80C78.6139 80 82.024 80.8719 85.0322 82.416C77.6433 89.0953 73 98.7552 73 109.5C73 114.644 74.0664 119.538 75.9863 123.977C75.6593 123.991 75.3306 124 75 124C62.8497 124 53 114.15 53 102C53 89.8497 62.8497 80 75 80Z" fill="#30374F"/>
<path d="M87.1387 16C88.6549 16.0001 89.9467 17.0329 90.1709 18.5078L92.4482 34.1426C96.1653 35.6176 99.5054 37.5346 102.691 39.8945L117.789 33.9951C119.152 33.5527 120.745 33.9951 121.5 35.3223L133.637 55.748C134.321 57.0047 134.021 58.6277 132.882 59.5127L120.061 69.2471C120.346 70.9925 120.497 72.8125 120.512 74.6914C117.037 73.5932 113.338 73 109.5 73C108.977 73 108.457 73.0134 107.939 73.0352C106.923 55.7246 92.5656 42.0001 75 42C56.7747 42.0001 42 56.7746 42 75C42 92.5657 55.7246 106.923 73.0352 107.939C73.0134 108.457 73 108.977 73 109.5C73 118.929 76.5762 127.523 82.4453 134H62.8594C61.3432 134 60.1339 132.967 59.8271 131.492L57.5557 115.857C53.8328 114.382 50.4985 112.465 47.3125 110.105L32.2148 116.005C30.8521 116.447 29.2592 116.005 28.498 114.678L16.3613 94.252C15.677 92.9953 15.9834 91.3723 17.1221 90.4873L29.9375 80.7529C29.6366 78.9121 29.4824 76.9175 29.4824 75C29.4824 73.0825 29.7128 71.0879 30.0137 69.2471L17.1934 59.5127C15.9839 58.6277 15.6764 57.0755 16.4375 55.748L28.5742 35.3223C29.3294 33.995 30.9223 33.4761 32.291 33.9951L47.3838 39.8945C50.4989 37.6114 53.9092 35.6175 57.626 34.1426L59.9033 18.5078C60.1334 17.0329 61.3432 16.0002 62.8594 16H87.1387Z" fill="#CFD6E9"/>
<circle cx="75" cy="65" r="12" fill="#30374F"/>
<circle cx="109.5" cy="109.5" r="32.5" fill="#4D5FEF"/>
<path d="M107.719 92.1322C108.461 90.6777 110.539 90.6777 111.281 92.1322L115.29 99.9875C115.581 100.557 116.126 100.953 116.758 101.054L125.467 102.439C127.08 102.695 127.722 104.672 126.568 105.827L120.336 112.067C119.884 112.52 119.676 113.161 119.776 113.792L121.15 122.504C121.404 124.117 119.723 125.338 118.267 124.598L110.407 120.599C109.837 120.309 109.163 120.309 108.593 120.599L100.733 124.598C99.2772 125.338 97.5958 124.117 97.8502 122.504L99.2243 113.792C99.3239 113.161 99.1156 112.52 98.6638 112.067L92.4317 105.827C91.2778 104.672 91.92 102.695 93.5327 102.439L102.242 101.054C102.874 100.953 103.419 100.557 103.71 99.9875L107.719 92.1322Z" fill="white"/>
</svg>
